<svg width="32" height="32" viewBox="0 0 44 58" fill="none" xmlns="http://www.w3.org/2000/svg">
  <defs>
    <linearGradient id="lg" x1="42" y1="2" x2="2" y2="54" gradientUnits="userSpaceOnUse">
      <stop offset="0%" stop-color="#C07DD4" />
      <stop offset="45%" stop-color="#D055A8" />
      <stop offset="100%" stop-color="#D84E86" />
    </linearGradient>
  </defs>
  <path d="M34 28 C39 34 4 55 2 52 C0 49 29 22 34 28Z" fill="url(#lg)" />
  <path d="M34 28 C30 33 0 6 2 4 C4 2 38 23 34 28Z" fill="url(#lg)" opacity="0.9" />
  <path d="M34 28 C30 31 15 2 17 1 C19 0 38 25 34 28Z" fill="url(#lg)" opacity="0.85" />
  <path d="M34 28 C37 29 42 3 41 2 C40 1 31 27 34 28Z" fill="url(#lg)" opacity="0.75" />
</svg>
