<svg width="32" height="32" viewBox="0 0 50 58" fill="none" xmlns="http://www.w3.org/2000/svg">
  <defs>
    <linearGradient id="lg" x1="45" y1="2" x2="1" y2="52" gradientUnits="userSpaceOnUse">
      <stop offset="0%" stop-color="#C07DD4" />
      <stop offset="45%" stop-color="#D055A8" />
      <stop offset="100%" stop-color="#D84E86" />
    </linearGradient>
  </defs>
  <path d="M37 32 C42 42 7 55 4 50 C1 45 32 22 37 32Z" fill="url(#lg)" stroke="white" stroke-width="1.5" stroke-linejoin="round" />
  <path d="M37 32 C33 37 0 6 1 3 C3 0 41 27 37 32Z" fill="url(#lg)" stroke="white" stroke-width="1.5" stroke-linejoin="round" />
  <path d="M37 32 C32 35 19 3 22 2 C25 1 42 29 37 32Z" fill="url(#lg)" stroke="white" stroke-width="1.5" stroke-linejoin="round" />
  <path d="M37 32 C40 33 45 4 43 4 C41 4 33 31 37 32Z" fill="url(#lg)" stroke="white" stroke-width="1.5" stroke-linejoin="round" />
</svg>
